<svg xmlns="http://www.w3.org/2000/svg" viewBox="0 0 256 256" role="img" aria-label="Rigorous researcher assistant avatar">
  <rect width="256" height="256" rx="48" fill="#172522"/>
  <circle cx="128" cy="128" r="76" fill="#eef4ef"/>
  <path d="M71 116c8-37 29-58 57-58s49 21 57 58c-18-8-37-12-57-12s-39 4-57 12Z" fill="#39514b"/>
  <path d="M78 139h39v24H78zM139 139h39v24h-39z" fill="none" stroke="#172522" stroke-width="7" rx="8"/>
  <path d="M117 151h22" stroke="#172522" stroke-width="7" stroke-linecap="round"/>
  <path d="M108 181h40" stroke="#172522" stroke-width="8" stroke-linecap="round"/>
  <path d="M45 216c14-30 45-50 83-50s69 20 83 50H45Z" fill="#5fb38a"/>
  <path d="M91 210l37-36 37 36" fill="none" stroke="#eef4ef" stroke-width="8" stroke-linecap="round"/>
</svg>
