<svg xmlns="http://www.w3.org/2000/svg" viewBox="0 0 256 256" role="img" aria-label="Pragmatic engineer assistant avatar">
  <rect width="256" height="256" rx="48" fill="#18202f"/>
  <path d="M48 154c0-51 32-88 80-88s80 37 80 88v38c0 11-9 20-20 20H68c-11 0-20-9-20-20v-38Z" fill="#f7f0e8"/>
  <path d="M70 146c5-40 28-62 58-62s53 22 58 62c-13-10-33-16-58-16s-45 6-58 16Z" fill="#2e384d"/>
  <circle cx="96" cy="150" r="8" fill="#18202f"/>
  <circle cx="160" cy="150" r="8" fill="#18202f"/>
  <path d="M104 183c14 10 34 10 48 0" fill="none" stroke="#18202f" stroke-width="8" stroke-linecap="round"/>
  <path d="M68 82h120v26H68z" fill="#4a9cff"/>
  <path d="M88 64h80v28H88z" fill="#7bbcff"/>
  <path d="M50 216h156c-11-26-39-44-78-44s-67 18-78 44Z" fill="#4a9cff"/>
</svg>
